<svg xmlns="http://www.w3.org/2000/svg" id="Laag_1" viewBox="0 0 477.44 636.4"><defs><style>.cls-2{stroke-width:0;fill:#000}</style></defs><g id="xaqpGu.tif"><path d="M477.44 49.73h-.32V36.57c-.02-17.66-8.68-29.71-25.31-35.36-.72-.25-1.36-.8-2.02-1.21H27.35c-3.5 1.64-7.21 2.95-10.46 4.98C6.13 11.68.26 21.38.04 34.22c-.01.46-.01.91-.01 1.37-.06 4.49 0 9.02 0 14.14V527c0 5.03-.02 9.89 0 14.75.11 19.84 15.13 34.88 34.98 34.96 15.94.06 31.88.01 47.82.01h6.65v46.39c.01 10.36 2.9 13.26 13.2 13.28 11.81.01 23.6.06 35.41-.02 7.4-.05 10.96-3.64 11-11.1.07-15.92.02-31.83.02-48.13h59.65c0 15.39-.01 30.65 0 45.92.01 10.4 2.89 13.33 13.14 13.34 11.79.01 23.6.06 35.39-.02 7.45-.05 11.02-3.61 11.07-11.03.11-15.73.11-31.47.17-47.21 0-.17.14-.36.39-.97h59.12v42.11c0 15.75 1.39 17.14 17.42 17.14 10.14 0 20.29.04 30.42-.01 8.28-.04 11.73-3.42 11.76-11.61.05-15.72.02-31.43.02-47.75 2.27-.11 4.25-.27 6.23-.29 16.35-.02 32.72.07 49.07-.04 18.68-.11 33.91-15.31 34.15-33.9.06-4.96 0-9.91 0-15.79h.34V49.73ZM128.81 616.21h-19.14v-39h19.14v39Zm119.25-.11h-19.09v-39.09h19.09v39.09Zm119.34.06h-19v-39.22h19v39.22Zm89.86-78.92c0 14.15-5.4 19.59-19.43 19.59-132.94.01-265.88.01-398.82 0-13.62 0-19.12-5.53-19.12-19.27V39.78c0-14.6 5.26-19.89 19.73-19.89 132.73-.01 265.47-.01 398.2 0 14.05 0 19.44 5.43 19.44 19.56v497.79Z" class="cls-2"/><path d="M427.42 238.3c1.48.18 2.09.36 2.69.32 15.73-1.16 17.54 3.82 17.3 17.4-.4 22.57-.11 45.15-.11 67.72 0 11.71-2.51 14.27-14.03 14.33h-5.85v175.79c0 10.23-2.96 13.13-13.36 13.13H63.13c-10.62 0-13.41-2.85-13.41-13.69V63.45c0-11.09 2.68-13.73 13.98-13.73h349.68c11.48 0 14.03 2.6 14.03 14.32V238.3ZM69.88 506.68h337.18V338.06c-3.39 0-6.29.09-9.18-.02-6.34-.24-10.12-3.77-10.15-10.05-.1-26.51-.11-53.02 0-79.54.03-5.95 3.81-9.51 9.77-9.78 3.22-.15 6.46-.03 9.57-.03V69.92H69.88v436.76ZM427 317.92v-58.89h-19.14v58.89H427ZM.03 35.59v14.13c0-5.11-.06-9.64 0-14.13ZM.03 526.99v14.75c-.02-4.86 0-9.71 0-14.75Z" class="cls-2"/><path d="M207.23 295.73c-13.7 0-26.73-.05-39.76.02-4.97.03-9.41-.68-11.81-5.84-2.35-5.06.34-8.61 3.32-12.24 41.62-50.61 83.2-101.24 124.8-151.87.58-.7 1.16-1.4 1.75-2.08 4.39-5.06 8.78-6.34 13.25-3.86 4.17 2.32 5.55 6.53 3.88 12.83-10.61 40.07-21.27 80.13-31.9 120.2-.36 1.37-.64 2.77-1.16 5.08H310.08c4.77 0 8.99 1.01 11.24 5.94 2.09 4.57.04 8.04-2.72 11.4-42.41 51.6-84.82 103.21-127.25 154.79-4.23 5.14-8.64 6.26-13.27 3.76-4.08-2.2-5.46-6.57-3.79-12.87 10.66-40.25 21.38-80.48 32.06-120.72.32-1.2.48-2.45.88-4.55Zm85.48-18.59c-11.67 0-21.81.03-31.95 0-10.91-.04-14.63-5.03-11.79-15.72 2.93-11.02 5.9-22.02 8.82-33.04 5.18-19.55 10.34-39.11 15.51-58.67-.27-.16-.55-.31-.82-.47-29.15 35.47-58.3 70.93-88.25 107.38 11.57 0 21.68-.05 31.79.01 11.11.06 14.85 4.92 12.02 15.55-5.12 19.24-10.28 38.46-15.39 57.7-3.02 11.37-5.99 22.76-8.98 34.14.29.13.59.26.88.39 29.09-35.39 58.18-70.78 88.16-107.25Z" style="stroke-width:0;fill:#ffdb05"/></g></svg>