<svg xmlns="http://www.w3.org/2000/svg" id="Laag_1" viewBox="0 0 562.98 632.07"><defs><style>.cls-2{stroke-width:0;fill:#000}</style></defs><g id="njThUu.tif"><path d="M421.07 632.07h-32.08c-2.56-.51-5.12-1.09-7.7-1.5-78.32-12.67-134.17-78.41-134.21-157.99v-17.89H197.7c0 6.51.02 12.65 0 18.79-.08 17.59-12.71 30.17-30.39 30.19-25.7.04-51.4.03-77.11 0-18.1-.02-30.63-12.5-30.69-30.49-.02-6.52 0-13.03 0-19.36C20.28 446.59-.23 413.91 0 381.47.75 277.39.24 173.31.3 69.23.33 30.53 30.84.07 69.57.04 148.53-.02 227.48.05 306.44 0c16.72 0 31.86 4.94 44 16.24 8.11 7.55 14.46 16.99 21.32 25.26 5.88-.6 12.69-1.74 19.51-1.88 14.59-.31 29.2-.17 43.79-.08 28.15.18 51.53 11.05 69.71 32.41 11.72 13.77 22.76 28.12 33.9 42.37 9.6 12.29 16.08 26.21 20.18 41.21 1.67 6.1 2.76 12.36 4.12 18.55v316.03c-.4 1.13-1.03 2.23-1.16 3.39-7.27 62.32-52.68 115.56-113.3 132.48-9.01 2.52-18.29 4.08-27.45 6.09Zm-65.4-404.8c0-52.05.1-104.1-.04-156.15-.08-29.9-21.49-51.29-51.38-51.33-77.53-.1-155.06-.09-232.59 0-30.26.03-51.6 21.41-51.62 51.71-.07 103.69-.06 207.38 0 311.06.02 30.63 21.35 51.95 52.01 51.97 77.12.07 154.24.06 231.35-.05 5.08 0 10.31-.55 15.23-1.81 22.58-5.78 36.99-25.23 37.02-49.87.08-51.84.02-103.69.02-155.53Zm-39.5 226.6c0 2.12-.06 3.94.01 5.76.33 8.62.19 17.29 1.12 25.84 4.86 44.85 46.62 79.99 91.64 77.38 47.87-2.77 84.47-40.88 84.89-88.8.28-31.67 0-63.34.14-95.01.02-3.67-1.14-5.2-4.58-6.57-16.03-6.4-25.1-20.15-25.11-37.36-.02-29.41-.08-58.82.08-88.23.02-4.03-1.17-6.84-4.04-9.64-11.92-11.63-24.34-22.87-35.16-35.46-9.49-11.04-19.92-16.62-34.53-14.25-4.75.77-9.74.12-15.22.12v6.33c0 63.14.01 126.27-.02 189.41 0 3.89.06 7.86-.61 11.67-5.53 31.34-25.5 51.53-58.59 58.81Zm226.72-98.4c.18-1.43.32-2.03.32-2.63 0-55.32.23-110.64-.12-165.96-.14-23.01-7.36-43.99-21.71-62.22-10.04-12.76-20.14-25.47-30.37-38.08-12.33-15.19-28.14-24.97-47.72-26.29-19.24-1.29-38.6-.93-57.9-.89-6.43.01-9.94 4.52-9.96 11.67-.07 28.38-.08 56.76 0 85.14.02 7.84 3.94 11.58 11.88 11.68 8.22.1 16.46.27 24.67-.07 5.18-.21 8.91 1.65 12.48 5.26a5963.77 5963.77 0 0 0 54.52 54.53c3.65 3.6 5.13 7.43 5.1 12.55-.17 31.26-.13 62.52-.06 93.78.03 12 7.29 20.87 18.54 21.39 13.29.62 26.63.14 40.33.14Zm-29.28 20.06c0 33.15.05 65.63-.05 98.11-.02 5.32-.36 10.68-1.1 15.95-6.97 49.69-47.95 88.68-97.49 92.92-64.06 5.48-118.47-44.44-118.53-108.77v-19.02h-31.05c1.75 17.25 1.93 34.25 5.38 50.54 15.36 72.47 91 120.28 162.95 103.83 65.35-14.93 109.26-69.71 109.49-136.73.11-30.44.02-60.88 0-91.32 0-1.78-.21-3.56-.34-5.51h-29.28ZM79.27 454.52c0 6.8-.21 12.96.06 19.09.27 6.18 3.98 10.18 10.12 10.22 26.1.18 52.21.16 78.31 0 5.63-.03 9.52-3.38 9.97-9.01.54-6.66.13-13.4.13-20.31H79.28Z" class="cls-2"/><path d="M187.65 138.27c-25.48 0-50.97.01-76.45 0-8.97 0-12.18-3.23-12.19-12.24-.02-21.59-.03-43.18 0-64.77.01-8.58 3.3-11.85 11.94-11.85 51.17-.02 102.35-.02 153.52 0 8.98 0 12.19 3.23 12.2 12.22.02 21.59.03 43.18 0 64.77-.01 8.55-3.34 11.85-11.95 11.86-25.69.03-51.38 0-77.07 0Zm-68.62-20.09h137.51V69.59H119.03v48.59Z" class="cls-2"/></g><path d="M166.65 301.31c-9.09 0-17.75-.03-26.41.02-3.3.02-6.25-.45-7.84-3.88-1.56-3.36.23-5.72 2.21-8.13 27.64-33.61 55.25-67.23 82.87-100.85.38-.47.77-.93 1.17-1.38 2.92-3.36 5.83-4.21 8.8-2.56 2.77 1.54 3.68 4.34 2.58 8.52-7.05 26.61-14.12 53.22-21.19 79.82-.24.91-.42 1.84-.77 3.37H234.95c3.17 0 5.97.67 7.46 3.95 1.39 3.04.03 5.34-1.81 7.57-28.17 34.26-56.32 68.54-84.51 102.79-2.81 3.41-5.73 4.16-8.81 2.5-2.71-1.46-3.62-4.36-2.52-8.55 7.08-26.73 14.2-53.44 21.29-80.17.21-.8.32-1.63.59-3.02Zm56.76-12.34c-7.75 0-14.48.02-21.22 0-7.25-.03-9.72-3.34-7.83-10.44 1.95-7.32 3.92-14.62 5.86-21.94 3.44-12.98 6.87-25.97 10.3-38.96-.18-.1-.36-.21-.54-.31-19.36 23.55-38.71 47.1-58.6 71.31 7.68 0 14.4-.03 21.11 0 7.38.04 9.86 3.27 7.98 10.32-3.4 12.77-6.82 25.54-10.22 38.32-2.01 7.55-3.98 15.11-5.96 22.67.2.09.39.17.59.26 19.32-23.5 38.63-47 58.54-71.22Z" style="stroke-width:0;fill:#ffdb05"/></svg>