<svg xmlns="http://www.w3.org/2000/svg" viewBox="0 0 288.25 577.63"><path d="M288.25 67.69V548.3c-.35.4-.85.75-1.02 1.21-7.16 20-18.56 28.11-39.56 28.11-69.6 0-139.19.02-208.79 0C15.6 577.62.02 562.1.01 538.89 0 384.95 0 231.01.04 77.08c0-3.17.12-6.43.85-9.49C5.06 49.96 19.24 38.64 37.4 38.43c12.89-.15 25.79-.03 39.26-.03 0-8.57.22-16.6-.07-24.62C76.37 7.81 78.06 3.11 83.33 0h121.61c5.24 3.1 6.95 7.76 6.74 13.72-.3 8.14-.07 16.29-.07 24.68 13.76 0 26.65-.12 39.52.04 12.56.16 22.89 5.27 30.18 15.53 2.94 4.13 4.68 9.13 6.96 13.73ZM19.2 307.87v227.88c0 16.27 6.3 22.64 22.39 22.64h204.92c16.14 0 22.54-6.39 22.54-22.51V80.11c0-15.86-6.39-22.36-22.14-22.32-18.2.05-36.4.32-54.59.3-50.1-.05-100.2-.22-150.3-.31-16.64-.03-22.81 6.17-22.81 22.77v227.32ZM191.59 19.68H96.65v18.3h94.94v-18.3Z" style="fill:#000;stroke-width:0"/><path d="M111.81 337.2c-14.16 0-27.65-.05-41.13.02-5.14.03-9.73-.7-12.21-6.04-2.43-5.24.35-8.91 3.44-12.66 43.04-52.34 86.05-104.71 129.07-157.07.6-.73 1.2-1.44 1.81-2.15 4.54-5.24 9.08-6.56 13.7-3.99 4.32 2.4 5.74 6.76 4.01 13.26-10.97 41.45-22 82.88-33 124.32-.38 1.42-.66 2.87-1.2 5.25H218.17c4.93 0 9.3 1.05 11.63 6.15 2.16 4.73.05 8.31-2.81 11.79-43.87 53.37-87.72 106.74-131.61 160.09-4.37 5.31-8.93 6.48-13.73 3.89-4.22-2.28-5.65-6.8-3.92-13.31 11.03-41.62 22.11-83.24 33.16-124.86.33-1.24.5-2.53.91-4.7Zm88.41-19.22c-12.07 0-22.56.03-33.05 0-11.29-.05-15.13-5.2-12.19-16.25 3.03-11.39 6.1-22.78 9.12-34.17 5.36-20.22 10.69-40.45 16.04-60.68-.28-.16-.56-.32-.85-.49-30.15 36.68-60.29 73.36-91.27 111.06 11.96 0 22.42-.05 32.88.01 11.49.07 15.35 5.09 12.43 16.08-5.29 19.9-10.63 39.78-15.92 59.67-3.13 11.76-6.19 23.54-9.29 35.31.3.13.61.27.91.4 30.08-36.6 60.17-73.2 91.17-110.92Z" style="stroke-width:0;fill:#ffdb05"/></svg>