<svg xmlns="http://www.w3.org/2000/svg" id="Laag_1" viewBox="0 0 706.78 596.28"><defs><style>.cls-2{stroke-width:0;fill:#000}</style></defs><path d="M692.49 364.62c-62.12.17-124.24.11-186.34.09-2.63 0-5.26-.22-8.43-.37.61-2.85.96-4.84 1.47-6.79 8.36-32.17 8.71-64.53 1.16-96.81-25.22-108.1-129.39-173.86-238.08-150.36a187.674 187.674 0 0 0-33.25 10.47c-3.3 1.31-7.35 3.17-12.26 5.67-.08.04-.17.08-.25.13-.02.01-.05.02-.07.03-.11.05-.21.11-.31.17-1.5.77-2.99 1.56-4.47 2.37-.21.12-.42.24-.64.35-1.44.79-2.88 1.61-4.31 2.44a.21.21 0 0 0-.06.04c-5.13 3-10.15 6.23-15.06 9.71-.47.33-.9.68-1.3 1.03-36.01 26.24-53.45 57.14-53.45 57.14v.03c-26.52 42.1-35.83 88.69-26.17 138.8 15 77.84 61.27 130.39 136.13 156.76 16.9 5.95 35.27 7.75 53.01 11.49-.7.9-2.02 2.71-3.46 4.4-18.37 21.77-36.94 43.38-54.9 65.49-2.61 3.2-4.27 9.42-2.91 12.9 1.21 3.07 7.16 4.45 11.21 6.13 1.56.66 3.64.13 5.48.13h163.13c31.73 0 63.46 0 95.19-.02 6.65 0 14.48-4.58 18.94-10.4 10.07-11.61 56.91-68.14 66.83-79.9 33.96-40.16 67.9-80.32 101.82-120.52 2.04-2.45 3.75-5.17 5.63-7.77v-5.5c-3.13-5.65-7.9-7.36-14.28-7.34ZM515.8 389.47c1.62-1.86 4.34-3.87 6.59-3.9 18.83-.29 37.68-.17 58.51-.17-9.79 11.63-19.34 21.3-26.87 32.34-8.76 12.88-19.29 18.22-35.01 16.42-12.87-1.49-26.04-.31-40.64-.31 3.53-4.31 6.17-7.6 8.87-10.82 9.48-11.23 18.88-22.49 28.55-33.55Zm-85.38 100.79c8.45-9.99 17.19-19.77 25.23-30.06 3.53-4.53 7.29-5.91 12.81-5.82 17.43.33 34.86.13 54.09.13-14.3 16.9-27.44 32.47-40.66 47.97-.81.94-2.26 1.86-3.44 1.86-19.42.11-38.84.09-59.84.09 4.6-5.54 8.17-9.88 11.8-14.17Zm-37.18 11.76c-1.14 1.34-3.48 2.32-5.26 2.34-18.39.17-36.79.09-55.18.04-.59 0-1.2-.37-2.6-.83 10.01-11.89 20.58-22.79 29.15-35.08 8.01-11.45 17.52-15.42 31.18-14.23 13.66 1.18 27.5.26 42.96.26-14.15 16.77-27.11 32.21-40.25 47.51Zm97.8-115.6c-10.6 12.55-21.53 24.31-31 37.14-6.18 8.41-13.12 11.03-23.17 10.49-15.3-.79-30.66-.2-47.78-.2 13.77-16.31 26.3-31.25 39-46.01 1.14-1.34 3.5-2.32 5.28-2.34 18.39-.15 36.77-.07 55.18-.02.57 0 1.16.42 2.48.94Zm-206.01 96.9c-107.6-13.44-180.3-123.48-150.49-227.81a175.272 175.272 0 0 1 18.71-42.95c22.82-33.8 47.91-52.51 60.31-60.39 35.43-21.6 74.2-29.75 115.99-24.25 108.69 14.26 179.12 120.91 147.76 231.1-1.34 4.71-3.68 5.91-8.3 5.8-13.1-.29-26.23.15-39.33-.2-6.57-.18-11.14 2.02-15.39 7.1-25.6 30.7-51.44 61.2-77.34 91.66q-20.34 23.93-51.92 19.93Zm43.53 91.9c-19.03.28-38.06.17-58.53.17 2.04-2.74 3.24-4.51 4.6-6.13 11.25-13.34 22.42-26.76 33.88-39.94 1.73-1.99 4.77-3.96 7.23-3.99 18.63-.33 37.25-.18 58-.18-5.63 6.7-10.16 12.07-14.67 17.43-8.15 9.64-16.22 19.36-24.52 28.9-1.53 1.73-3.96 3.72-6 3.75Zm88.62.02c-18.85.26-37.69.15-58.62.15 7.14-8.5 13.14-15.66 19.14-22.79 6.66-7.9 13.25-15.87 20.1-23.61 1.51-1.71 3.96-3.64 6-3.68 19.03-.28 38.06-.15 58.13-.15-1.34 2.08-2.01 3.42-2.94 4.55-11.85 14.04-23.67 28.12-35.69 42.04-1.47 1.69-4.03 3.46-6.11 3.5Zm99.48-3.3c-3.9 3.6-8.71 3.59-13.96 3.52-15.64-.18-31.27-.04-46.92-.07-2.19 0-4.38-.22-7.9-.39 11.32-13.42 22.38-25.38 32.04-38.38 6.72-9.02 14.15-12.5 25.44-11.76 16.01 1.07 32.15.28 49.05.28-.83 1.79-37.06 45.56-37.76 46.8Zm81.93-97.36c-6.22 7.36-12.94 14.37-18.57 22.18-4.55 6.31-9.83 8.19-17.43 7.9-15.61-.61-31.27-.17-46.92-.2-2.19 0-4.38-.18-7.86-.35 10.49-12.44 20.96-23.39 29.69-35.62 7.84-11.01 16.79-15.52 30.48-14.28 15.06 1.36 30.31.31 47.39.31-6.29 7.53-11.52 13.8-16.79 20.06Zm69.24-81.98c-10.49 12.44-20.93 24.92-31.58 37.22-1.6 1.84-4.33 3.83-6.55 3.85-20.17.31-40.36.18-62.47.18 10.9-12.96 21.42-24.13 30.35-36.46 6.94-9.59 14.84-12.99 26.52-12.24 15.94 1.01 32.01.24 49.6.24-2.56 3.17-4.18 5.21-5.87 7.22ZM69.57 304.57c.12-6.78-3.82-10.41-12.26-10.53-14.44-.22-28.9.09-43.34-.25-6-.14-10.65 1.5-13.97 6.53v8.27c4.06 1.99 8.04 5.48 12.19 5.69 14.87.74 29.8.44 44.7.39 8.54-.03 12.57-3.38 12.68-10.09ZM174.47 96.07c3.76 6.37 8.92 7.88 14.38 4.68 5.4-3.16 6.96-8.73 3.55-14.77-7.87-13.97-15.81-27.9-24.13-41.61-1.7-2.8-5.18-4.52-6.59-5.7-10.6.13-15.28 8.5-10.9 16.32 7.72 13.79 15.67 27.45 23.69 41.07ZM98.95 173.21c-14.71-8.86-29.59-17.45-44.6-25.79-5.39-3-9.88-.5-12.77 4.4-2.98 5.06-2.25 10.14 2.83 13.21 14.51 8.75 29.15 17.31 44.01 25.45 6.92 3.79 14.99-1.62 15.1-11.19-.93-1.29-2.18-4.63-4.58-6.08ZM519.08 194.29c2.98-.76 4.21-.81 5.17-1.36 15.52-8.8 31.16-17.43 46.42-26.67 4.44-2.69 4.52-7.78 1.99-12.31-2.69-4.83-7.37-7.34-12.16-4.78-15.54 8.31-30.91 16.99-45.79 26.4-2.51 1.59-3.66 7.89-2.83 11.39.74 3.11 5.12 5.35 7.2 7.32ZM432.98 103.21c1.51-1.19 5.16-2.82 6.89-5.63 8.62-14.04 16.89-28.3 24.95-42.67 2.93-5.22.95-10.62-4.2-13.43-5.19-2.83-10.15-2.18-13.23 2.9-8.78 14.48-17.43 29.06-25.57 43.9-3.92 7.15 1.49 15.27 11.16 14.94Z" class="cls-2"/><path d="M180.51 507.51c-1.36.82-4.8 1.73-6.13 3.91-9.17 15.06-18.12 30.27-26.63 45.72-2.72 4.93-.09 9.47 4.52 12.27 4.74 2.88 9.83 2.57 12.78-2.24 9.1-14.85 18.02-29.82 26.31-45.13 3.7-6.82-1.88-14.65-10.84-14.52ZM307.21 69.91c5.85.11 10.41-4.96 10.54-12.05.14-7.57.03-15.15.03-22.72h.1c0-7.8.09-15.61-.03-23.41-.11-7.66-3.87-11.76-10.44-11.73-6.26.03-10.07 3.95-10.17 11.32-.21 15.61-.24 31.22-.1 46.82.06 6.94 4.38 11.66 10.07 11.76ZM88.13 418.15c-15.28 8.3-30.44 16.88-45.15 26.13-2.44 1.53-3.99 7.44-3.1 10.5 1.01 3.45 5.24 5.97 7.54 8.33 3.14-.88 4.59-1 5.75-1.65 15.12-8.59 30.31-17.07 45.22-26.02 4.84-2.9 5.12-7.96 2.5-12.75-2.81-5.15-7.61-7.34-12.76-4.54ZM554.41 296.22c-7.16.12-11.08 3.9-11.05 10.32.02 6.38 3.96 10.21 11.15 10.27 15.85.14 31.71.16 47.56.05 6.61-.05 10.59-3.96 10.75-9.98.17-6.3-3.93-10.46-10.85-10.59-8.04-.16-16.08-.04-24.12-.04v-.05c-7.81 0-15.63-.1-23.43.03Z" class="cls-2"/><path d="M281.07 311.37c-11.07 0-21.6-.04-32.13.02-4.02.02-7.6-.55-9.54-4.72-1.9-4.09.28-6.96 2.69-9.89 33.63-40.89 67.23-81.81 100.84-122.71.47-.57.94-1.13 1.42-1.68 3.55-4.09 7.1-5.12 10.7-3.12 3.37 1.88 4.48 5.28 3.14 10.36-8.57 32.38-17.19 64.75-25.78 97.12-.29 1.11-.51 2.24-.94 4.1h32.71c3.85 0 7.26.82 9.08 4.8 1.69 3.7.04 6.49-2.2 9.21-34.27 41.69-68.53 83.39-102.82 125.07-3.42 4.15-6.98 5.06-10.72 3.04-3.3-1.78-4.41-5.31-3.06-10.4 8.62-32.52 17.27-65.03 25.9-97.54.26-.97.39-1.98.71-3.67Zm69.07-15.01c-9.43 0-17.62.03-25.82 0-8.82-.04-11.82-4.06-9.52-12.7 2.37-8.9 4.77-17.79 7.13-26.7 4.19-15.8 8.35-31.6 12.53-47.41-.22-.13-.44-.25-.66-.38-23.55 28.66-47.1 57.31-71.31 86.76 9.34 0 17.52-.04 25.69 0 8.97.05 12 3.97 9.71 12.56-4.13 15.54-8.3 31.08-12.43 46.62-2.44 9.19-4.84 18.39-7.26 27.58.24.1.48.21.71.31 23.5-28.59 47.01-57.19 71.23-86.66Z" style="stroke-width:0;fill:#ffdb05"/></svg>